<?xml version="1.0" encoding="UTF-8" standalone="no"?> <svg width="64" height="64" viewBox="0 0 64 64" fill="none" xmlns="http://www.w3.org/2000/svg">
<path d="M52.1499 10.8C49.2649 8.23947 45.5044 6.88873 41.6496 7.0284C37.7948 7.16807 34.1419 8.7874 31.4499 11.55L27.6098 15.39C26.8208 16.1892 26.3784 17.267 26.3784 18.39C26.3784 19.513 26.8208 20.5909 27.6098 21.39C28.0036 21.7843 28.4713 22.0971 28.9861 22.3105C29.5008 22.5239 30.0526 22.6338 30.6098 22.6338C31.1671 22.6338 31.7189 22.5239 32.2336 22.3105C32.7484 22.0971 33.2161 21.7843 33.6098 21.39L37.5298 17.47C38.6529 16.3153 40.1646 15.6187 41.772 15.5152C43.3795 15.4117 44.9681 15.9088 46.2298 16.91C46.9915 17.5486 47.5921 18.3575 47.983 19.2713C48.3739 20.1851 48.5441 21.1782 48.4798 22.17C48.351 23.7709 47.6394 25.2688 46.4798 26.38L42.5399 30.32C42.1069 30.7048 41.7572 31.1739 41.5122 31.6987C41.2671 32.2235 41.132 32.7928 41.1149 33.3717C41.0979 33.9507 41.1993 34.527 41.4131 35.0652C41.6268 35.6035 41.9483 36.0925 42.3579 36.502C42.7674 36.9115 43.2563 37.233 43.7946 37.4468C44.3329 37.6605 44.9092 37.762 45.4881 37.745C46.067 37.7279 46.6364 37.5927 47.1612 37.3477C47.6859 37.1026 48.1551 36.7529 48.5399 36.32L52.6398 32.22C54.0572 30.802 55.172 29.1111 55.917 27.2497C56.6619 25.3884 57.0214 23.3952 56.9737 21.3909C56.9261 19.3865 56.4722 17.4127 55.6396 15.5889C54.807 13.765 53.613 12.1291 52.1299 10.78L52.1499 10.8ZM50.8999 30.47L46.7899 34.58C46.461 34.9076 46.0155 35.091 45.5513 35.0901C45.0872 35.0892 44.6424 34.9039 44.3148 34.575C43.9873 34.2461 43.8038 33.8006 43.8048 33.3365C43.8057 32.8723 43.991 32.4276 44.3198 32.1L48.2598 28.16C49.8564 26.6138 50.8312 24.5362 50.9998 22.32C51.0877 20.9381 50.8483 19.555 50.3009 18.283C49.7536 17.0111 48.9138 15.8863 47.8498 15C46.2909 13.6976 44.3212 12.9891 42.2899 13C39.8435 13.0046 37.4987 13.9792 35.7698 15.71L31.8498 19.63C31.517 19.9473 31.0747 20.1243 30.6148 20.1243C30.155 20.1243 29.7127 19.9473 29.3798 19.63C29.0525 19.3003 28.8688 18.8546 28.8688 18.39C28.8688 17.9254 29.0525 17.4797 29.3798 17.15L33.2199 13.31C35.4543 10.9999 38.4939 9.64096 41.7054 9.51615C44.9169 9.39134 48.0528 10.5103 50.4598 12.64C51.6946 13.7596 52.6892 15.1182 53.3832 16.6336C54.0773 18.149 54.4564 19.7895 54.4975 21.4558C54.5387 23.122 54.241 24.7793 53.6226 26.327C53.0042 27.8748 52.0779 29.2809 50.8999 30.46V30.47Z" fill="black"/>
<path d="M33.73 40.91C33.1722 40.9103 32.62 41.0209 32.1051 41.2354C31.5903 41.4499 31.1229 41.7642 30.73 42.16L26.28 46.61C25.643 47.245 24.8782 47.7372 24.0363 48.0539C23.1945 48.3706 22.2949 48.5045 21.3973 48.4468C20.4997 48.3892 19.6247 48.1411 18.8303 47.7193C18.0359 47.2974 17.3404 46.7113 16.79 46C15.866 44.7346 15.4319 43.1772 15.568 41.6163C15.704 40.0553 16.401 38.5965 17.53 37.51L21.8 33.25C22.2329 32.8653 22.5826 32.3961 22.8276 31.8713C23.0727 31.3465 23.2079 30.7772 23.2249 30.1983C23.2419 29.6194 23.1405 29.0431 22.9267 28.5048C22.713 27.9665 22.3915 27.4776 21.982 27.068C21.5724 26.6585 21.0835 26.337 20.5452 26.1232C20.0069 25.9095 19.4306 25.808 18.8517 25.8251C18.2728 25.8421 17.7034 25.9773 17.1787 26.2224C16.6539 26.4674 16.1847 26.8171 15.8 27.25L11.62 31.42C8.85463 34.1064 7.22981 37.7543 7.08271 41.6069C6.93561 45.4594 8.27753 49.2206 10.83 52.11C12.17 53.6074 13.803 54.814 15.628 55.6551C17.4529 56.4962 19.431 56.954 21.44 57H21.82C23.7648 57.0068 25.6917 56.6275 27.4889 55.8843C29.2861 55.141 30.918 54.0485 32.29 52.67L36.74 48.22C37.3308 47.6244 37.7326 46.8675 37.895 46.0444C38.0574 45.2212 37.9731 44.3685 37.6526 43.593C37.3322 42.8176 36.79 42.1541 36.0939 41.6857C35.3978 41.2173 34.579 40.9648 33.74 40.96L33.73 40.91ZM35 46.4L30.55 50.85C29.3692 52.0293 27.9611 52.9563 26.4112 53.575C24.8612 54.1936 23.2018 54.4909 21.5335 54.4488C19.8652 54.4067 18.2229 54.0261 16.7061 53.3301C15.1894 52.6342 13.8298 51.6373 12.71 50.4C10.5911 47.986 9.48193 44.8494 9.61224 41.64C9.74255 38.4306 11.1023 35.3943 13.41 33.16L17.55 29C17.8758 28.677 18.3161 28.4957 18.775 28.4957C19.2338 28.4957 19.6741 28.677 20 29C20.3267 29.328 20.5101 29.7721 20.5101 30.235C20.5101 30.698 20.3267 31.142 20 31.47L15.74 35.73C14.1766 37.2426 13.214 39.2701 13.0302 41.4376C12.8463 43.6051 13.4537 45.7658 14.74 47.52C15.5047 48.5198 16.4746 49.3443 17.5845 49.9381C18.6944 50.5319 19.9185 50.8813 21.1746 50.9628C22.4307 51.0442 23.6897 50.8559 24.8669 50.4104C26.0442 49.9649 27.1125 49.2726 28 48.38L32.45 43.93C32.7834 43.6098 33.2277 43.431 33.69 43.431C34.1522 43.431 34.5966 43.6098 34.93 43.93C35.2567 44.258 35.4401 44.7021 35.4401 45.165C35.4401 45.628 35.2567 46.072 34.93 46.4H35Z" fill="black"/>
<path d="M41.1401 22.8199C40.3435 22.0261 39.2647 21.5803 38.1401 21.5803C37.0154 21.5803 35.9367 22.0261 35.1401 22.8199L22.8001 35.1399C22.3671 35.5247 22.0174 35.9938 21.7724 36.5186C21.5274 37.0434 21.3922 37.6127 21.3751 38.1916C21.3581 38.7706 21.4596 39.3469 21.6733 39.8852C21.887 40.4234 22.2086 40.9124 22.6181 41.3219C23.0276 41.7314 23.5165 42.053 24.0548 42.2667C24.5931 42.4804 25.1694 42.5819 25.7483 42.5649C26.3273 42.5478 26.8966 42.4126 27.4214 42.1676C27.9462 41.9226 28.4153 41.5728 28.8001 41.1399L41.1401 28.8299C41.9315 28.032 42.3756 26.9537 42.3756 25.8299C42.3756 24.7061 41.9315 23.6278 41.1401 22.8299V22.8199ZM39.3701 27.0599L27.0001 39.3899C26.8372 39.5521 26.644 39.6806 26.4315 39.7681C26.219 39.8557 25.9914 39.9005 25.7615 39.9C25.5317 39.8995 25.3042 39.8538 25.0921 39.7654C24.8799 39.6771 24.6873 39.5478 24.5251 39.3849C24.3629 39.2221 24.2344 39.0289 24.1468 38.8164C24.0593 38.6039 24.0145 38.3762 24.015 38.1464C24.0154 37.9166 24.0612 37.6891 24.1495 37.4769C24.2379 37.2648 24.3672 37.0721 24.5301 36.9099L36.8901 24.5899C37.2246 24.272 37.6685 24.0947 38.1301 24.0947C38.5916 24.0947 39.0355 24.272 39.3701 24.5899C39.6968 24.9179 39.8802 25.362 39.8802 25.8249C39.8802 26.2879 39.6968 26.7319 39.3701 27.0599V27.0599Z" fill="black"/>
</svg>
