<?xml version="1.0" encoding="UTF-8" standalone="no"?> <svg id="Layer_x0020_1" xmlns="http://www.w3.org/2000/svg" width="900" height="900" viewBox="0 0 900 900">
  <circle id="Ellipse_17" data-name="Ellipse 17" cx="450" cy="450" r="450" fill="#333"/>
  <path id="Path_92" data-name="Path 92" d="M376.252,276.28c-2.47,9.06-32.837,36.98-40.387,43.816H235.086A41.189,41.189,0,0,0,194,361.184V587.063a41.189,41.189,0,0,0,41.087,41.087H664.913A41.189,41.189,0,0,0,706,587.063V361.184A41.189,41.189,0,0,0,664.913,320.1h-100.1c-7.46-6.755-37.174-34.076-40.277-43.473a6,6,0,0,0-5.875-4.773H382.018a6,6,0,0,0-5.789,4.422l.022.007Zm117.607,33.807H406.141a6,6,0,0,1,0-12h87.718a6,6,0,0,1,0,12Zm52.74,67.436A136.609,136.609,0,1,1,450,337.509,136.225,136.225,0,0,1,546.6,377.523Zm-312.273,98.8H276c37.044,0,39.026,58.052,0,58.052H234.326c-39.151,0-36.921-58.052,0-58.052Zm395.745-72.213a25.736,25.736,0,1,1-18.2,7.538A25.66,25.66,0,0,1,630.071,404.106Z" fill="#fffffe" fill-rule="evenodd"/>
  <path id="Path_93" data-name="Path 93" d="M450,375.765a98.358,98.358,0,1,0,69.548,28.808A98.052,98.052,0,0,0,450,375.765Z" fill="#fffffe" fill-rule="evenodd"/>
  <path id="Path_94" data-name="Path 94" d="M558.356,474.122A108.358,108.358,0,1,1,526.619,397.5,108.05,108.05,0,0,1,558.356,474.122ZM360.472,384.593A126.612,126.612,0,1,0,450,347.509a126.222,126.222,0,0,0-89.529,37.084Z" fill="#fffffe" fill-rule="evenodd"/>
  <path id="Path_95" data-name="Path 95" d="M234.326,486.318c-6.458,0-11.894,2.512-15.348,8.072a21.6,21.6,0,0,0-2.98,8.505c-1.642,12.28,5.574,21.477,18.328,21.477H276c6.789,0,12.767-2.369,16.124-8.522a21.514,21.514,0,0,0,2.244-12.694c-1.194-10.018-7.984-16.838-18.368-16.838H234.326Z" fill="#fffffe" fill-rule="evenodd"/>
  <path id="Path_96" data-name="Path 96" d="M645.808,429.842a15.735,15.735,0,1,0-4.609,11.129A15.665,15.665,0,0,0,645.808,429.842Z" fill="#fffffe" fill-rule="evenodd"/>
  <path id="Path_97" data-name="Path 97" d="M322.207,310.1a40,40,0,0,0-79.449,0Z" fill="#fffffe"/>
</svg>
