<?xml version="1.0" encoding="UTF-8" standalone="no"?> <svg width="64" height="64" viewBox="0 0 64 64" fill="none" xmlns="http://www.w3.org/2000/svg">
<path d="M59.6 25.2299C59.2274 24.0417 58.481 23.0056 57.4719 22.2758C56.4629 21.546 55.2451 21.1617 54 21.1799H43.91C43.1969 21.1824 42.5015 20.958 41.9245 20.5391C41.3474 20.1203 40.9185 19.5287 40.7 18.8499L37.58 9.23993C37.2008 8.05794 36.4562 7.02687 35.4533 6.29536C34.4505 5.56385 33.2413 5.16968 32 5.16968C30.7587 5.16968 29.5494 5.56385 28.5466 6.29536C27.5437 7.02687 26.7991 8.05794 26.42 9.23993L23.3 18.8499C23.0814 19.5287 22.6525 20.1203 22.0755 20.5391C21.4984 20.958 20.803 21.1824 20.09 21.1799H9.99996C8.75784 21.1718 7.54527 21.5586 6.53727 22.2844C5.52927 23.0103 4.77799 24.0376 4.39187 25.2182C4.00575 26.3988 4.00477 27.6716 4.38907 28.8528C4.77338 30.034 5.52308 31.0625 6.52996 31.7899L14.71 37.7899C15.2876 38.2049 15.7181 38.793 15.9392 39.469C16.1604 40.145 16.1606 40.8738 15.94 41.5499L12.81 51.1699C12.4145 52.3472 12.4081 53.6205 12.7916 54.8017C13.1751 55.9829 13.9283 57.0095 14.94 57.7299C15.9378 58.4703 17.1474 58.87 18.39 58.87C19.6325 58.87 20.8421 58.4703 21.84 57.7299L30.02 51.7299C30.5987 51.3012 31.2998 51.0699 32.02 51.0699C32.7401 51.0699 33.4413 51.3012 34.02 51.7299L42.2 57.6699C43.2013 58.3899 44.4044 58.7755 45.6377 58.7719C46.871 58.7684 48.0718 58.3758 49.0689 57.65C50.0661 56.9243 50.8089 55.9024 51.1916 54.7299C51.5742 53.5575 51.5771 52.2942 51.2 51.1199L48.06 41.4999C47.8393 40.8238 47.8395 40.095 48.0607 39.419C48.2818 38.743 48.7123 38.1549 49.29 37.7399L57.47 31.7399C58.4726 31.0236 59.22 30.0056 59.6031 28.8344C59.9863 27.6633 59.9852 26.4004 59.6 25.2299V25.2299Z" fill="black"/>
</svg>
